<?xml version="1.0" encoding="UTF-8" standalone="no"?>
<!DOCTYPE svg PUBLIC "-//W3C//DTD SVG 1.1//EN" "http://www.w3.org/Graphics/SVG/1.1/DTD/svg11.dtd">
<svg width="100%" height="100%" viewBox="0 0 5689 5689" version="1.1" xmlns="http://www.w3.org/2000/svg" xmlns:xlink="http://www.w3.org/1999/xlink" xml:space="preserve" xmlns:serif="http://www.serif.com/" style="fill-rule:evenodd;clip-rule:evenodd;stroke-linejoin:round;stroke-miterlimit:1.41421;">
    <g transform="matrix(5.55556,0,0,5.55556,0,0)">
        <g transform="matrix(1,0,0,0.994557,0,0)">
            <g id="图层1">
                <path d="M1025.44,180.985C1025.44,132.985 1006.48,86.951 972.723,53.009C938.967,19.068 893.183,0 845.444,0C658.663,0 368.246,0 181.466,0C133.727,0 87.943,19.068 54.186,53.009C20.43,86.951 1.466,132.985 1.466,180.985C1.466,368.793 1.466,660.811 1.466,848.619C1.466,896.619 20.43,942.653 54.186,976.595C87.943,1010.54 133.727,1029.6 181.466,1029.6C368.246,1029.6 658.663,1029.6 845.444,1029.6C893.183,1029.6 938.967,1010.54 972.723,976.595C1006.48,942.653 1025.44,896.619 1025.44,848.619C1025.44,660.811 1025.44,368.793 1025.44,180.985Z" style="fill:rgb(216,12,24);"/>
            </g>
        </g>
        <g id="图层-2" serif:id="图层 2">
            <g transform="matrix(1,0,0,1,286.287,294.5)">
                <path d="M0,8.896C0,10.851 -3.83,12.436 -8.554,12.436L-82.473,12.436C-87.197,12.436 -91.027,10.851 -91.027,8.896L-91.027,0C-91.027,-1.955 -87.197,-3.54 -82.473,-3.54L-8.554,-3.54C-3.83,-3.54 0,-1.955 0,0L0,8.896Z" style="fill:white;fill-rule:nonzero;"/>
            </g>
            <g transform="matrix(1,0,0,1,425.056,294.5)">
                <path d="M0,8.896C0,10.851 -5.281,12.436 -11.796,12.436L-113.726,12.436C-120.241,12.436 -125.522,10.851 -125.522,8.896L-125.522,0C-125.522,-1.955 -120.241,-3.54 -113.726,-3.54L-11.796,-3.54C-5.281,-3.54 0,-1.955 0,0L0,8.896Z" style="fill:white;fill-rule:nonzero;"/>
            </g>
        </g>
        <g transform="matrix(1,0,0,1,565,330.268)">
            <g id="图层-3" serif:id="图层 3">
                <path d="M0,351.282C-83.073,351.282 -150.417,283.938 -150.417,200.865C-150.417,117.793 -83.073,50.449 0,50.449C83.073,50.449 150.417,117.793 150.417,200.865C150.417,283.938 83.073,351.282 0,351.282M0,-41.613C13.2,-41.613 23.901,-30.912 23.901,-17.711C23.901,-4.511 13.2,6.19 0,6.19C-13.2,6.19 -23.901,-4.511 -23.901,-17.711C-23.901,-30.912 -13.2,-41.613 0,-41.613M308.46,-6.299C308.46,-36.658 283.849,-61.268 253.491,-61.268L-57.353,-61.268C-83.797,-61.268 -105.873,-42.592 -111.128,-17.711L-360.599,-17.711C-389.866,-17.711 -413.591,6.014 -413.591,35.28L-413.591,359.558C-413.591,388.825 -389.866,412.55 -360.599,412.55L254.599,412.55C283.866,412.55 307.591,388.825 307.591,359.558L307.591,35.28C307.591,34.196 307.548,33.122 307.484,32.053C308.116,28.718 308.46,25.282 308.46,21.763L308.46,-6.299Z" style="fill:white;fill-rule:nonzero;"/>
            </g>
        </g>
        <g transform="matrix(1,0,0,1,687.322,531)">
            <g id="图层-4" serif:id="图层 4">
                <path d="M0,0C0,67.557 -54.766,122.322 -122.322,122.322C-189.879,122.322 -244.644,67.557 -244.644,0C-244.644,-67.557 -189.879,-122.322 -122.322,-122.322C-54.766,-122.322 0,-67.557 0,0" style="fill:white;fill-rule:nonzero;"/>
            </g>
        </g>
    </g>
</svg>
